<?xml version="1.0" encoding="UTF-8" standalone="no"?>
<!DOCTYPE svg PUBLIC "-//W3C//DTD SVG 1.1//EN" "http://www.w3.org/Graphics/SVG/1.1/DTD/svg11.dtd">
<!-- 由 Microsoft Visio, SVG Export 生成 戰情室架構.svg 页-1 -->
<svg xmlns="http://www.w3.org/2000/svg" xmlns:xlink="http://www.w3.org/1999/xlink" xmlns:ev="http://www.w3.org/2001/xml-events"
		width="9.41987in" height="7.38439in" viewBox="0 0 678.23 531.676" xml:space="preserve" color-interpolation-filters="sRGB"
		class="st12">
	<style type="text/css">
	<![CDATA[
		.st1 {stroke:#000000;stroke-linecap:round;stroke-linejoin:round;stroke-width:0.75}
		.st2 {fill:#ffffff;stroke:#000000;stroke-linecap:round;stroke-linejoin:round;stroke-width:0.75}
		.st3 {fill:#0c0c0c;font-family:宋体;font-size:1.00001em}
		.st4 {font-size:1em}
		.st5 {fill:#000000}
		.st6 {fill:#ffffff}
		.st7 {fill:#000000;font-family:宋体;font-size:1.00001em}
		.st8 {fill:#e8eef7;stroke:#000000;stroke-linecap:round;stroke-linejoin:round;stroke-width:0.75}
		.st9 {fill:#0c0c0c;font-family:宋体;font-size:0.833336em}
		.st10 {font-size:1em;font-weight:bold}
		.st11 {fill:#000000;stroke:none;stroke-linecap:round;stroke-linejoin:round;stroke-width:6.375}
		.st12 {fill:none;fill-rule:evenodd;font-size:12px;overflow:visible;stroke-linecap:square;stroke-miterlimit:3}
	]]>
	</style>

	<g>
		<title>页-1</title>
		<g id="group3-1" transform="translate(210.139,-51.2039)">
			<title>数据库服务器</title>
			<desc>資料庫伺服器 FastWeb 服務端 (WEB播放機服務端)</desc>
			<g id="shape4-2" transform="translate(20.6107,-15.502)">
				<title>工作表.4</title>
				<path d="M0 531.68 L28.27 531.68" class="st1"/>
			</g>
			<g id="shape5-5" transform="translate(48.8837,-3.41061E-13)">
				<title>工作表.5</title>
				<rect x="0" y="498.273" width="21.3245" height="33.4037" class="st2"/>
			</g>
			<g id="shape6-7" transform="translate(0.657982,-5.47553)">
				<title>工作表.6</title>
				<path d="M0 470.91 L0 509.8 L0.01 509.8 C0.19 512.29 9.42 514.3 20.78 514.3 C32.14 514.3 41.37 512.29 41.55 509.8
							 L41.56 509.8 L41.56 470.91 C41.5 472.08 39.44 473.15 36.1 473.95 C36.09 473.95 36.09 473.95 36.09 473.95
							 C35.87 474.01 35.64 474.06 35.41 474.11 C35.4 474.11 35.39 474.11 35.39 474.11 C35.16 474.16 34.93 474.21
							 34.69 474.26 C34.67 474.26 34.66 474.26 34.64 474.27 C34.41 474.31 34.18 474.36 33.94 474.4 C33.91 474.41
							 33.89 474.41 33.86 474.41 C33.63 474.46 33.4 474.5 33.16 474.53 C33.12 474.54 33.07 474.55 33.02 474.56
							 C32.8 474.59 32.58 474.63 32.35 474.66 C32.3 474.67 32.25 474.68 32.2 474.68 C31.97 474.72 31.74 474.75
							 31.51 474.78 C31.45 474.79 31.4 474.79 31.34 474.8 C31.11 474.83 30.88 474.86 30.64 474.89 C30.57 474.9
							 30.5 474.9 30.43 474.91 C30.21 474.94 29.98 474.96 29.75 474.99 C29.67 475 29.58 475.01 29.49 475.01
							 C29.28 475.04 29.06 475.06 28.84 475.08 C28.73 475.09 28.61 475.1 28.5 475.11 C28.3 475.13 28.1 475.14
							 27.9 475.16 C27.78 475.17 27.66 475.18 27.54 475.19 C27.34 475.2 27.14 475.22 26.94 475.23 C26.81 475.24
							 26.68 475.25 26.55 475.25 C26.35 475.27 26.16 475.28 25.96 475.29 C25.81 475.3 25.67 475.31 25.53 475.31
							 C25.34 475.32 25.15 475.33 24.95 475.34 C24.81 475.35 24.66 475.36 24.52 475.36 C24.32 475.37 24.13
							 475.38 23.93 475.38 C23.77 475.39 23.61 475.39 23.44 475.4 C23.26 475.4 23.08 475.41 22.9 475.41 C22.7
							 475.42 22.49 475.42 22.29 475.42 C22.14 475.42 21.99 475.43 21.85 475.43 C21.49 475.43 21.14 475.44
							 20.78 475.44 C20.42 475.44 20.07 475.43 19.71 475.43 C19.57 475.43 19.42 475.42 19.27 475.42 C19.07
							 475.42 18.86 475.42 18.66 475.41 C18.48 475.41 18.3 475.4 18.12 475.4 C17.95 475.39 17.79 475.39 17.63
							 475.38 C17.43 475.38 17.24 475.37 17.04 475.36 C16.9 475.35 16.75 475.35 16.61 475.34 C16.41 475.33
							 16.22 475.32 16.03 475.31 C15.89 475.31 15.74 475.3 15.6 475.29 C15.4 475.28 15.21 475.27 15.01 475.25
							 C14.88 475.25 14.75 475.24 14.62 475.23 C14.42 475.22 14.22 475.2 14.02 475.19 C13.9 475.18 13.78 475.17
							 13.66 475.16 C13.46 475.14 13.26 475.13 13.06 475.11 C12.95 475.1 12.83 475.09 12.72 475.08 C12.5 475.06
							 12.28 475.04 12.07 475.01 C11.98 475.01 11.89 475 11.81 474.99 C11.58 474.96 11.35 474.94 11.13 474.91
							 C11.06 474.9 10.99 474.9 10.91 474.89 C10.68 474.86 10.45 474.83 10.22 474.8 C10.16 474.79 10.11 474.79
							 10.05 474.78 C9.82 474.75 9.59 474.72 9.36 474.68 C9.31 474.68 9.26 474.67 9.21 474.66 C8.98 474.63
							 8.76 474.59 8.54 474.56 C8.49 474.55 8.44 474.54 8.4 474.53 C8.16 474.5 7.93 474.46 7.7 474.41 C7.67
							 474.41 7.65 474.41 7.62 474.4 C7.38 474.36 7.15 474.31 6.92 474.27 C6.9 474.26 6.89 474.26 6.87 474.26
							 C6.63 474.21 6.4 474.16 6.17 474.11 C6.17 474.11 6.16 474.11 6.15 474.11 C5.92 474.06 5.69 474.01 5.47
							 473.95 C5.47 473.95 5.47 473.95 5.46 473.95 C2.12 473.15 0.06 472.08 0 470.91 ZM5.46 473.95 C5.47 473.95
							 5.47 473.95 5.47 473.95 C5.69 474.01 5.92 474.06 6.15 474.11 C6.16 474.11 6.17 474.11 6.17 474.11 C6.4
							 474.16 6.63 474.21 6.87 474.26 C6.89 474.26 6.9 474.26 6.92 474.27 C7.15 474.31 7.38 474.36 7.62 474.4
							 C7.65 474.41 7.67 474.41 7.7 474.41 C7.93 474.46 8.16 474.5 8.4 474.53 C8.44 474.54 8.49 474.55 8.54
							 474.56 C8.76 474.59 8.98 474.63 9.21 474.66 C9.26 474.67 9.31 474.68 9.36 474.68 C9.59 474.72 9.82 474.75
							 10.05 474.78 C10.11 474.79 10.16 474.79 10.22 474.8 C10.45 474.83 10.68 474.86 10.91 474.89 C10.99 474.9
							 11.06 474.9 11.13 474.91 C11.35 474.94 11.58 474.96 11.81 474.99 C11.89 475 11.98 475.01 12.07 475.01
							 C12.28 475.04 12.5 475.06 12.72 475.08 C12.83 475.09 12.95 475.1 13.06 475.11 C13.26 475.13 13.46 475.14
							 13.66 475.16 C13.78 475.17 13.9 475.18 14.02 475.19 C14.22 475.2 14.42 475.22 14.62 475.23 C14.75 475.24
							 14.88 475.25 15.01 475.25 C15.21 475.27 15.4 475.28 15.6 475.29 C15.74 475.3 15.89 475.31 16.03 475.31
							 C16.22 475.32 16.41 475.33 16.61 475.34 C16.75 475.35 16.9 475.35 17.04 475.36 C17.24 475.37 17.43 475.38
							 17.63 475.38 C17.79 475.39 17.95 475.39 18.12 475.4 C18.3 475.4 18.48 475.41 18.66 475.41 C18.86 475.42
							 19.07 475.42 19.27 475.42 C19.42 475.42 19.57 475.43 19.71 475.43 C20.07 475.43 20.42 475.44 20.78 475.44
							 C21.14 475.44 21.49 475.43 21.85 475.43 C21.99 475.43 22.14 475.42 22.29 475.42 C22.49 475.42 22.7 475.42
							 22.9 475.41 C23.08 475.41 23.26 475.4 23.44 475.4 C23.61 475.39 23.77 475.39 23.93 475.38 C24.13 475.38
							 24.32 475.37 24.52 475.36 C24.66 475.36 24.81 475.35 24.95 475.34 C25.15 475.33 25.34 475.32 25.53 475.31
							 C25.67 475.31 25.81 475.3 25.96 475.29 C26.16 475.28 26.35 475.27 26.55 475.25 C26.68 475.25 26.81 475.24
							 26.94 475.23 C27.14 475.22 27.34 475.2 27.54 475.19 C27.66 475.18 27.78 475.17 27.9 475.16 C28.1 475.14
							 28.3 475.13 28.5 475.11 C28.61 475.1 28.73 475.09 28.84 475.08 C29.06 475.06 29.28 475.04 29.49 475.01
							 C29.58 475.01 29.67 475 29.75 474.99 C29.98 474.96 30.21 474.94 30.43 474.91 C30.5 474.9 30.57 474.9
							 30.64 474.89 C30.88 474.86 31.11 474.83 31.34 474.8 C31.4 474.79 31.45 474.79 31.51 474.78 C31.74 474.75
							 31.97 474.72 32.2 474.68 C32.25 474.68 32.3 474.67 32.35 474.66 C32.58 474.63 32.8 474.59 33.02 474.56
							 C33.07 474.55 33.12 474.54 33.16 474.53 C33.4 474.5 33.63 474.46 33.86 474.41 C33.89 474.41 33.91 474.41
							 33.94 474.4 C34.18 474.36 34.41 474.31 34.64 474.27 C34.66 474.26 34.67 474.26 34.69 474.26 C34.93 474.21
							 35.16 474.16 35.39 474.11 C35.39 474.11 35.4 474.11 35.41 474.11 C35.64 474.06 35.87 474.01 36.09 473.95
							 C36.09 473.95 36.09 473.95 36.1 473.95 C39.49 473.14 41.56 472.05 41.56 470.86 C41.56 468.33 32.25 466.29
							 20.78 466.29 C9.3 466.29 0 468.33 0 470.86 C-0 472.05 2.07 473.14 5.46 473.95 ZM56.44 531.68 L66.84
							 531.68 L66.84 530.84 L56.44 530.84 L56.44 531.68 ZM56.44 529.14 L66.84 529.14 L66.84 528.31 L56.44 528.31
							 L56.44 529.14 ZM56.44 526.61 L66.84 526.61 L66.84 525.78 L56.44 525.78 L56.44 526.61 ZM66.63 521.6 A1.28924
							 1.28924 -180 1 0 64.05 521.6 A1.28924 1.28924 -180 1 0 66.63 521.6 Z" class="st2"/>
			</g>
			<g id="shape3-9">
				<text x="-0.57" y="546.48" class="st3">資料庫伺服器 <tspan x="-6.57" dy="1.2em" class="st4">FastWeb </tspan>服務端 <tspan
							x="-18.57" dy="1.2em" class="st4">(WEB</tspan>播放機服務端)</text>			</g>
		</g>
		<g id="group7-13" transform="translate(91.0837,-460.81)">
			<title>LCD 显示器</title>
			<desc>Windows播放器 Smart 開發 (P101)</desc>
			<g id="shape8-14" transform="translate(0,-4.56874)">
				<title>工作表.8</title>
				<path d="M70.87 518.16 L70.87 469.95 L0 469.95 L0 518.16 L70.87 518.16 ZM42.96 518.16 L27.91 518.16 L27.91 523.13
							 C22.76 523.89 19.26 525.4 19.26 527.14 C19.26 529.65 26.5 531.68 35.43 531.68 C44.37 531.68 51.61 529.65
							 51.61 527.14 C51.61 525.4 48.1 523.89 42.96 523.13 L42.96 518.16 Z" class="st2"/>
			</g>
			<g id="shape9-16" transform="translate(2.85165,-20.9367)">
				<title>工作表.9</title>
				<rect x="-1.18946E-07" y="489.167" width="65.1635" height="42.5091" class="st2"/>
			</g>
			<g id="shape7-18">
				<text x="-3.57" y="546.48" class="st3">Windows播放器 <tspan x="5.43" dy="1.2em" class="st4">Smart</tspan> 開發 <tspan
							x="17.43" dy="1.2em" class="st4">(P101)</tspan></text>			</g>
		</g>
		<g id="group10-22" transform="translate(210.139,-460.81)">
			<title>LCD 显示器.10</title>
			<desc>Android播放器 PinToo 開發 (P102)</desc>
			<g id="shape11-23" transform="translate(0,-4.56874)">
				<title>工作表.11</title>
				<path d="M70.87 518.16 L70.87 469.95 L0 469.95 L0 518.16 L70.87 518.16 ZM42.96 518.16 L27.91 518.16 L27.91 523.13
							 C22.76 523.89 19.26 525.4 19.26 527.14 C19.26 529.65 26.5 531.68 35.43 531.68 C44.37 531.68 51.61 529.65
							 51.61 527.14 C51.61 525.4 48.1 523.89 42.96 523.13 L42.96 518.16 Z" class="st2"/>
			</g>
			<g id="shape12-25" transform="translate(2.85165,-20.9367)">
				<title>工作表.12</title>
				<rect x="-1.18946E-07" y="489.167" width="65.1635" height="42.5091" class="st2"/>
			</g>
			<g id="shape10-27">
				<text x="-3.57" y="546.48" class="st3">Android播放器 <tspan x="2.43" dy="1.2em" class="st4">PinToo</tspan> 開發 <tspan
							x="17.43" dy="1.2em" class="st4">(P102)</tspan></text>			</g>
		</g>
		<g id="group13-31" transform="translate(329.194,-460.81)">
			<title>LCD 显示器.13</title>
			<desc>播放器N FastWeb 開發</desc>
			<g id="shape14-32" transform="translate(0,-4.56874)">
				<title>工作表.14</title>
				<path d="M70.87 518.16 L70.87 469.95 L0 469.95 L0 518.16 L70.87 518.16 ZM42.96 518.16 L27.91 518.16 L27.91 523.13
							 C22.76 523.89 19.26 525.4 19.26 527.14 C19.26 529.65 26.5 531.68 35.43 531.68 C44.37 531.68 51.61 529.65
							 51.61 527.14 C51.61 525.4 48.1 523.89 42.96 523.13 L42.96 518.16 Z" class="st2"/>
			</g>
			<g id="shape15-34" transform="translate(2.85165,-20.9367)">
				<title>工作表.15</title>
				<rect x="-1.18946E-07" y="489.167" width="65.1635" height="42.5091" class="st2"/>
			</g>
			<g id="shape13-36">
				<text x="14.43" y="546.48" class="st3">播放器N <tspan x="-0.57" dy="1.2em" class="st4">FastWeb </tspan>開發</text>			</g>
		</g>
		<g id="group16-39" transform="translate(91.0837,-51.2039)">
			<title>终端</title>
			<desc>數控中心控制室(Smart)</desc>
			<g id="shape17-40" transform="translate(0,-4.14563)">
				<title>工作表.17</title>
				<path d="M67.46 469.1 L4.12 469.1 L4.12 511.37 L67.46 511.37 L67.46 469.1 ZM70.87 531.68 L60.24 518.35 L10.63 518.35
							 L0 531.68 L70.87 531.68 ZM41 511.37 L29.87 511.37 L29.87 518.35 L41 518.35 L41 511.37 Z" class="st2"/>
			</g>
			<g id="shape18-42" transform="translate(8.22949,-28.2604)">
				<title>工作表.18</title>
				<path d="M55.21 497.41 L0 497.41 L0 531.68 L55.21 531.68 L55.21 497.41 Z" class="st2"/>
			</g>
			<g id="shape19-44" transform="translate(9.64422,-6.8964)">
				<title>工作表.19</title>
				<path d="M48.39 526.51 L45.24 526.51 L47.01 528.47 L50.4 528.47 L48.39 526.51 ZM44.83 523.03 L42.12 523.03 L44.01
							 525.14 L46.99 525.14 L44.83 523.03 ZM43.55 526.51 L40.4 526.51 L41.78 528.47 L45.18 528.47 L43.55 526.51
							 ZM40.66 523.03 L37.94 523.03 L39.43 525.14 L42.41 525.14 L40.66 523.03 ZM38.7 526.51 L35.55 526.51 L36.56
							 528.47 L39.96 528.47 L38.7 526.51 ZM36.49 523.03 L33.78 523.03 L34.86 525.18 L37.85 525.18 L36.49 523.03
							 ZM33.86 526.51 L30.71 526.51 L31.34 528.47 L34.73 528.47 L33.86 526.51 ZM32.38 523.18 L29.64 523.18
							 L30.28 525.18 L33.27 525.18 L32.38 523.18 ZM29.01 526.51 L25.86 526.51 L26.11 528.47 L29.51 528.47 L29.01
							 526.51 ZM28.22 523.34 L25.46 523.34 L25.71 525.3 L28.71 525.3 L28.22 523.34 ZM23.98 523.34 L21.23 523.34
							 L21.1 525.3 L24.1 525.3 L23.98 523.34 ZM24.17 526.51 L21.02 526.51 L20.89 528.47 L24.29 528.47 L24.17
							 526.51 ZM19.75 523.34 L17 523.34 L16.49 525.3 L19.49 525.3 L19.75 523.34 ZM19.33 526.51 L16.18 526.51
							 L15.67 528.47 L19.06 528.47 L19.33 526.51 ZM36.6 529.72 L14.38 529.72 L13.8 531.68 L37.56 531.68 L36.6
							 529.72 ZM15.51 523.34 L12.76 523.34 L11.88 525.3 L14.87 525.3 L15.51 523.34 ZM14.48 526.51 L11.33 526.51
							 L10.44 528.47 L13.84 528.47 L14.48 526.51 ZM11.28 523.34 L8.53 523.34 L7.26 525.3 L10.26 525.3 L11.28
							 523.34 ZM9.64 526.51 L6.49 526.51 L5.22 528.47 L8.62 528.47 L9.64 526.51 ZM7.05 523.34 L4.29 523.34
							 L2.65 525.3 L5.65 525.3 L7.05 523.34 ZM4.79 526.51 L1.64 526.51 L0 528.47 L3.4 528.47 L4.79 526.51 Z"
						class="st5"/>
			</g>
			<g id="shape16-47">
				<text x="-27.57" y="546.48" class="st3">數控中心控制室(Smart)</text>			</g>
		</g>
		<g id="group22-49" transform="translate(91.0837,-309.157)">
			<title>主机</title>
			<desc>主題1(單屏)</desc>
			<g id="shape23-50" transform="translate(0,-0.5876)">
				<title>工作表.23</title>
				<path d="M56.69 461.99 L14.32 461.99 L0 489.8 L0 531.68 L70.87 531.68 L70.87 489.8 L56.69 461.99 Z" class="st6"/>
				<path d="M0 489.8 L70.87 489.8" class="st1"/>
				<path d="M56.69 461.99 L14.32 461.99 L0 489.8 L0 531.68 L70.87 531.68 L70.87 489.8 L56.69 461.99" class="st1"/>
			</g>
			<g id="shape22-54">
				<text x="2.43" y="546.48" class="st7">主題1(單屏)</text>			</g>
		</g>
		<g id="group24-56" transform="translate(210.139,-309.157)">
			<title>主机.24</title>
			<desc>主題2(雙分割)</desc>
			<g id="shape25-57" transform="translate(0,-0.5876)">
				<title>工作表.25</title>
				<path d="M56.69 461.99 L14.32 461.99 L0 489.8 L0 531.68 L70.87 531.68 L70.87 489.8 L56.69 461.99 Z" class="st6"/>
				<path d="M0 489.8 L70.87 489.8" class="st1"/>
				<path d="M56.69 461.99 L14.32 461.99 L0 489.8 L0 531.68 L70.87 531.68 L70.87 489.8 L56.69 461.99" class="st1"/>
			</g>
			<g id="shape24-61">
				<text x="-3.57" y="546.48" class="st7">主題2(雙分割)</text>			</g>
		</g>
		<g id="group26-63" transform="translate(329.194,-309.157)">
			<title>主机.26</title>
			<desc>主題1(四分割)</desc>
			<g id="shape27-64" transform="translate(0,-0.5876)">
				<title>工作表.27</title>
				<path d="M56.69 461.99 L14.32 461.99 L0 489.8 L0 531.68 L70.87 531.68 L70.87 489.8 L56.69 461.99 Z" class="st6"/>
				<path d="M0 489.8 L70.87 489.8" class="st1"/>
				<path d="M56.69 461.99 L14.32 461.99 L0 489.8 L0 531.68 L70.87 531.68 L70.87 489.8 L56.69 461.99" class="st1"/>
			</g>
			<g id="shape26-68">
				<text x="-3.57" y="546.48" class="st7">主題1(四分割)</text>			</g>
		</g>
		<g id="shape28-70" transform="translate(448.249,-297.818)">
			<title>工作表.28</title>
			<desc>主題與播放機不是一一對應的關係播放機可以輪流播放不同主題也可單獨指定播放特定主題 主題內容設置要播放的主題 播放主題設置主...</desc>
			<rect x="0" y="460.81" width="187.087" height="70.8661" class="st8"/>
			<text x="0" y="469.24" class="st9">主題與播放機不是一一對應的關係，播放<tspan x="0" dy="1.2em" class="st4">機可以輪流播放不同主題</tspan>，也可單獨指定<tspan
						x="0" dy="1.2em" class="st4">播放特定主題</tspan> <tspan x="0" dy="1.2em" class="st10">主題內容</tspan><tspan
						class="st10">：</tspan>設置要播放的主題 <tspan x="0" dy="1.2em" class="st10">播放主題</tspan><tspan class="st10">：</tspan>設置主題要在哪個播放機上播<tspan
						x="0" dy="1.2em" class="st4">放</tspan>，以及在播放機中的播放順序。</text>		</g>
		<g id="shape29-80" transform="translate(448.249,-470.731)">
			<title>工作表.29</title>
			<desc>播放機與顯示裝置是一一對應的一台顯示裝置上理論只允許一個播放機運行</desc>
			<rect x="0" y="480.653" width="187.087" height="51.0236" class="st8"/>
			<text x="0" y="495.36" class="st7">播放機與顯示裝置是一一對應的，<tspan x="0" dy="1.2em" class="st4">一台顯示裝置上理論只允許一個播</tspan><tspan
						x="0" dy="1.2em" class="st4">放機運行</tspan></text>		</g>
		<g id="group40-85" transform="translate(91.0837,-181.598)">
			<title>数据库</title>
			<desc>戰情內容1</desc>
			<g id="shape41-86" transform="translate(3.40011,0)">
				<title>工作表.41</title>
				<path d="M0 471.62 L0 520.99 A32.033 10.6903 -180 1 0 64.07 520.99 L64.07 471.5 A32.033 10.6903 0 0 1 0 471.62 ZM64.07
							 471.5 A32.033 10.6903 -180 1 0 0 471.5 A32.033 10.6903 -180 1 0 64.07 471.5 Z" class="st2"/>
			</g>
			<g id="shape40-88">
				<text x="8.43" y="546.48" class="st3">戰情內容1</text>			</g>
		</g>
		<g id="group42-90" transform="translate(210.139,-181.598)">
			<title>数据库.42</title>
			<desc>戰情內容2</desc>
			<g id="shape43-91" transform="translate(3.40011,0)">
				<title>工作表.43</title>
				<path d="M0 471.62 L0 520.99 A32.033 10.6903 -180 1 0 64.07 520.99 L64.07 471.5 A32.033 10.6903 0 0 1 0 471.62 ZM64.07
							 471.5 A32.033 10.6903 -180 1 0 0 471.5 A32.033 10.6903 -180 1 0 64.07 471.5 Z" class="st2"/>
			</g>
			<g id="shape42-93">
				<text x="8.43" y="546.48" class="st3">戰情內容2</text>			</g>
		</g>
		<g id="group44-95" transform="translate(329.194,-181.598)">
			<title>数据库.44</title>
			<desc>戰情內容3</desc>
			<g id="shape45-96" transform="translate(3.40011,0)">
				<title>工作表.45</title>
				<path d="M0 471.62 L0 520.99 A32.033 10.6903 -180 1 0 64.07 520.99 L64.07 471.5 A32.033 10.6903 0 0 1 0 471.62 ZM64.07
							 471.5 A32.033 10.6903 -180 1 0 0 471.5 A32.033 10.6903 -180 1 0 64.07 471.5 Z" class="st2"/>
			</g>
			<g id="shape44-98">
				<text x="8.43" y="546.48" class="st3">戰情內容3</text>			</g>
		</g>
		<g id="shape47-100" transform="translate(103.84,-311.991)">
			<title>工作表.47</title>
			<rect x="0" y="503.33" width="45.3543" height="28.3465" class="st8"/>
		</g>
		<g id="shape48-102" transform="translate(222.895,-311.991)">
			<title>工作表.48</title>
			<rect x="0" y="503.33" width="22.6772" height="28.3465" class="st8"/>
		</g>
		<g id="shape49-104" transform="translate(246.989,-311.991)">
			<title>工作表.49</title>
			<rect x="0" y="503.33" width="22.6772" height="28.3465" class="st8"/>
		</g>
		<g id="shape50-106" transform="translate(341.95,-326.165)">
			<title>工作表.50</title>
			<rect x="0" y="517.503" width="22.6772" height="14.1732" class="st8"/>
		</g>
		<g id="shape51-108" transform="translate(366.044,-326.165)">
			<title>工作表.51</title>
			<rect x="0" y="517.503" width="22.6772" height="14.1732" class="st8"/>
		</g>
		<g id="shape52-110" transform="translate(341.95,-311.991)">
			<title>工作表.52</title>
			<rect x="0" y="517.503" width="22.6772" height="14.1732" class="st8"/>
		</g>
		<g id="shape53-112" transform="translate(366.044,-311.991)">
			<title>工作表.53</title>
			<rect x="0" y="517.503" width="22.6772" height="14.1732" class="st8"/>
		</g>
		<g id="shape54-114" transform="translate(448.249,-181.598)">
			<title>工作表.54</title>
			<desc>戰情內容與主題不是一一對應的關係一個戰情內容可以在多個主題中顯示 戰情內容設置顯示的戰情顯示的戰情為Web頁面 應用單元設...</desc>
			<rect x="0" y="460.81" width="187.087" height="70.8661" class="st8"/>
			<text x="0" y="469.24" class="st9">戰情內容與主題不是一一對應的關係，一<tspan x="0" dy="1.2em" class="st4">個戰情內容可以在多個主題中顯示 </tspan><tspan
						x="0" dy="1.2em" class="st4">戰情內容</tspan>：設置顯示的戰情，顯示的戰情<tspan x="0" dy="1.2em" class="st4">為</tspan>Web頁面 <tspan
						x="0" dy="1.2em" class="st4">應用單元</tspan>：設置戰情內容在主題中的顯示<tspan x="0" dy="1.2em" class="st4">順序</tspan>(用於多分屏顯示順序的排布)</text>		</g>
		<g id="group56-122" transform="translate(344.784,-51.2039)">
			<title>智能手机</title>
			<desc>數控中心遙控器(PinToo)</desc>
			<g id="shape57-123">
				<title>工作表.57</title>
				<path d="M38.03 460.81 C38.94 460.81 39.69 461.53 39.69 462.42 L39.69 530.07 C39.69 530.95 38.94 531.68 38.03 531.68
							 L1.65 531.68 C0.74 531.68 0 530.95 0 530.07 L0 462.42 C0 461.53 0.74 460.81 1.65 460.81 L38.03 460.81
							 ZM16.54 464.03 C15.63 464.03 14.88 464.76 14.88 465.64 C14.88 466.53 15.63 467.25 16.54 467.25 L23.15
							 467.25 C24.06 467.25 24.8 466.53 24.8 465.64 C24.8 464.76 24.06 464.03 23.15 464.03 L16.54 464.03 ZM34.72
							 522.01 L34.72 470.47 L4.96 470.47 L4.96 522.01 L34.72 522.01 Z" class="st11"/>
			</g>
			<g id="shape56-125">
				<text x="-48.66" y="546.48" class="st7">數控中心遙控器(PinToo)</text>			</g>
		</g>
		<g id="shape58-127" transform="translate(3.20965,-144.747)">
			<title>工作表.58</title>
			<path d="M0 531.68 L674.65 531.68 L0 531.68 Z" class="st8"/>
		</g>
		<g id="shape61-129" transform="translate(3.20965,-269.472)">
			<title>工作表.61</title>
			<path d="M0 531.68 L674.65 531.68 L0 531.68 Z" class="st8"/>
		</g>
		<g id="shape62-131" transform="translate(0.375,-399.865)">
			<title>工作表.62</title>
			<path d="M0 531.68 L674.65 531.68 L0 531.68 Z" class="st8"/>
		</g>
		<g id="group65-133" transform="translate(115.745,-490.149)">
			<title>主机.65</title>
			<g id="shape66-134" transform="translate(0,-0.195083)">
				<title>工作表.66</title>
				<path d="M18.82 508.54 L4.75 508.54 L0 517.77 L0 531.68 L23.53 531.68 L23.53 517.77 L18.82 508.54 Z" class="st6"/>
				<path d="M0 517.77 L23.53 517.77" class="st1"/>
				<path d="M18.82 508.54 L4.75 508.54 L0 517.77 L0 531.68 L23.53 531.68 L23.53 517.77 L18.82 508.54" class="st1"/>
			</g>
		</g>
		<g id="shape67-138" transform="translate(119.98,-491.09)">
			<title>工作表.67</title>
			<rect x="0" y="522.265" width="15.0576" height="9.41102" class="st8"/>
		</g>
		<g id="group68-140" transform="translate(232.462,-488.08)">
			<title>主机.68</title>
			<g id="shape69-141" transform="translate(0,-0.217412)">
				<title>工作表.69</title>
				<path d="M20.98 505.89 L5.3 505.89 L0 516.18 L0 531.68 L26.22 531.68 L26.22 516.18 L20.98 505.89 Z" class="st6"/>
				<path d="M0 516.18 L26.22 516.18" class="st1"/>
				<path d="M20.98 505.89 L5.3 505.89 L0 516.18 L0 531.68 L26.22 531.68 L26.22 516.18 L20.98 505.89" class="st1"/>
			</g>
		</g>
		<g id="shape70-145" transform="translate(236.827,-488.08)">
			<title>工作表.70</title>
			<rect x="0" y="521.188" width="8.39055" height="10.4882" class="st8"/>
		</g>
		<g id="shape71-147" transform="translate(245.742,-488.08)">
			<title>工作表.71</title>
			<rect x="0" y="521.188" width="8.39055" height="10.4882" class="st8"/>
		</g>
		<g id="group72-149" transform="translate(351.588,-489.015)">
			<title>主机.72</title>
			<g id="shape73-150" transform="translate(0,-0.213886)">
				<title>工作表.73</title>
				<path d="M20.64 506.31 L5.21 506.31 L0 516.43 L0 531.68 L25.8 531.68 L25.8 516.43 L20.64 506.31 Z" class="st6"/>
				<path d="M0 516.43 L25.8 516.43" class="st1"/>
				<path d="M20.64 506.31 L5.21 506.31 L0 516.43 L0 531.68 L25.8 531.68 L25.8 516.43 L20.64 506.31" class="st1"/>
			</g>
		</g>
		<g id="shape74-154" transform="translate(356.231,-495.206)">
			<title>工作表.74</title>
			<rect x="0" y="526.517" width="8.25449" height="5.15906" class="st8"/>
		</g>
		<g id="shape75-156" transform="translate(365.001,-495.206)">
			<title>工作表.75</title>
			<rect x="0" y="526.517" width="8.25449" height="5.15906" class="st8"/>
		</g>
		<g id="shape76-158" transform="translate(356.231,-490.047)">
			<title>工作表.76</title>
			<rect x="0" y="526.517" width="8.25449" height="5.15906" class="st8"/>
		</g>
		<g id="shape77-160" transform="translate(365.001,-490.047)">
			<title>工作表.77</title>
			<rect x="0" y="526.517" width="8.25449" height="5.15906" class="st8"/>
		</g>
		<g id="group78-162" transform="translate(120.139,-319.787)">
			<title>数据库.26</title>
			<g id="shape79-163" transform="translate(0.61202,0)">
				<title>工作表.79</title>
				<path d="M0 520.87 L0 529.75 A5.76593 1.92425 -180 1 0 11.53 529.75 L11.53 520.84 A5.76593 1.92425 0 0 1 0 520.87
							 ZM11.53 520.84 A5.76593 1.92425 -180 1 0 0 520.84 A5.76593 1.92425 -180 1 0 11.53 520.84 Z"
						class="st2"/>
			</g>
		</g>
		<g id="group80-165" transform="translate(227.855,-319.787)">
			<title>数据库.80</title>
			<g id="shape81-166" transform="translate(0.61202,0)">
				<title>工作表.81</title>
				<path d="M0 520.87 L0 529.75 A5.76593 1.92425 -180 1 0 11.53 529.75 L11.53 520.84 A5.76593 1.92425 0 0 1 0 520.87
							 ZM11.53 520.84 A5.76593 1.92425 -180 1 0 0 520.84 A5.76593 1.92425 -180 1 0 11.53 520.84 Z"
						class="st2"/>
			</g>
		</g>
		<g id="group82-168" transform="translate(251.95,-319.787)">
			<title>数据库.82</title>
			<g id="shape83-169" transform="translate(0.61202,0)">
				<title>工作表.83</title>
				<path d="M0 520.87 L0 529.75 A5.76593 1.92425 -180 1 0 11.53 529.75 L11.53 520.84 A5.76593 1.92425 0 0 1 0 520.87
							 ZM11.53 520.84 A5.76593 1.92425 -180 1 0 0 520.84 A5.76593 1.92425 -180 1 0 11.53 520.84 Z"
						class="st2"/>
			</g>
		</g>
		<g id="group84-171" transform="translate(346.91,-326.873)">
			<title>数据库.84</title>
			<g id="shape85-172" transform="translate(0.61202,0)">
				<title>工作表.85</title>
				<path d="M0 520.87 L0 529.75 A5.76593 1.92425 -180 1 0 11.53 529.75 L11.53 520.84 A5.76593 1.92425 0 0 1 0 520.87
							 ZM11.53 520.84 A5.76593 1.92425 -180 1 0 0 520.84 A5.76593 1.92425 -180 1 0 11.53 520.84 Z"
						class="st2"/>
			</g>
		</g>
		<g id="group86-174" transform="translate(371.005,-326.873)">
			<title>数据库.86</title>
			<g id="shape87-175" transform="translate(0.61202,0)">
				<title>工作表.87</title>
				<path d="M0 520.87 L0 529.75 A5.76593 1.92425 -180 1 0 11.53 529.75 L11.53 520.84 A5.76593 1.92425 0 0 1 0 520.87
							 ZM11.53 520.84 A5.76593 1.92425 -180 1 0 0 520.84 A5.76593 1.92425 -180 1 0 11.53 520.84 Z"
						class="st2"/>
			</g>
		</g>
		<g id="group88-177" transform="translate(346.91,-313.409)">
			<title>数据库.88</title>
			<g id="shape89-178" transform="translate(0.61202,0)">
				<title>工作表.89</title>
				<path d="M0 520.87 L0 529.75 A5.76593 1.92425 -180 1 0 11.53 529.75 L11.53 520.84 A5.76593 1.92425 0 0 1 0 520.87
							 ZM11.53 520.84 A5.76593 1.92425 -180 1 0 0 520.84 A5.76593 1.92425 -180 1 0 11.53 520.84 Z"
						class="st2"/>
			</g>
		</g>
		<g id="group90-180" transform="translate(371.005,-313.409)">
			<title>数据库.90</title>
			<g id="shape91-181" transform="translate(0.61202,0)">
				<title>工作表.91</title>
				<path d="M0 520.87 L0 529.75 A5.76593 1.92425 -180 1 0 11.53 529.75 L11.53 520.84 A5.76593 1.92425 0 0 1 0 520.87
							 ZM11.53 520.84 A5.76593 1.92425 -180 1 0 0 520.84 A5.76593 1.92425 -180 1 0 11.53 520.84 Z"
						class="st2"/>
			</g>
		</g>
	</g>
</svg>
